<?xml version="1.0" standalone="no"?>
<!DOCTYPE svg PUBLIC "-//W3C//DTD SVG 20010904//EN"
 "http://www.w3.org/TR/2001/REC-SVG-20010904/DTD/svg10.dtd">
<svg version="1.0" xmlns="http://www.w3.org/2000/svg"
 width="192.000000pt" height="192.000000pt" viewBox="0 0 192.000000 192.000000"
 preserveAspectRatio="xMidYMid meet">
<metadata>
Created by potrace 1.11, written by Peter Selinger 2001-2013
</metadata>
<g transform="translate(0.000000,192.000000) scale(0.100000,-0.100000)"
fill="#000000" stroke="none">
<path d="M0 960 l0 -960 960 0 960 0 0 960 0 960 -960 0 -960 0 0 -960z m350
135 l0 -115 45 0 45 0 0 115 0 115 55 0 55 0 0 -280 0 -280 -55 0 -55 0 0 115
0 115 -45 0 -45 0 0 -115 0 -115 -55 0 -55 0 0 280 0 280 55 0 55 0 0 -115z
m570 60 l0 -55 -85 0 -85 0 0 -60 0 -60 75 0 75 0 0 -50 0 -50 -75 0 -75 0 0
-60 0 -60 85 0 85 0 0 -55 0 -56 -142 3 -143 3 -3 265 c-1 146 0 270 3 277 3
10 41 13 145 13 l140 0 0 -55z m307 29 c46 -35 66 -70 71 -127 5 -58 -21 -127
-55 -145 -15 -9 -13 -20 25 -125 23 -63 42 -120 42 -126 0 -7 -22 -11 -54 -11
l-55 0 -19 53 c-11 28 -30 80 -42 115 -13 34 -27 62 -31 62 -5 0 -9 -52 -9
-115 l0 -115 -55 0 -55 0 0 281 0 282 105 -5 c85 -4 111 -9 132 -24z m364 3
c18 -12 44 -38 56 -56 22 -32 23 -44 23 -199 0 -149 -2 -168 -21 -202 -42 -75
-137 -101 -213 -57 -67 38 -76 68 -76 255 0 190 8 218 74 257 53 32 111 33
157 2z"/>
<path d="M1100 1040 c0 -56 2 -60 23 -60 38 0 67 27 67 64 0 41 -15 56 -57 56
l-33 0 0 -60z"/>
<path d="M1482 1088 c-8 -8 -12 -58 -12 -158 0 -153 4 -170 45 -170 41 0 45
17 45 170 0 153 -4 170 -45 170 -12 0 -26 -5 -33 -12z"/>
</g>
</svg>
